# xmcd
#
# Track frame offsets:
#	150
#	16167
#	30877
#	50208
#	79463
#	98713
#	114196
#	128837
#	138824
#	156275
#	174689
#	192514
#	207003
#	218379
#	239414
#
# Disc length: 3453 seconds
# Revision: 0
# Processed by: cddbd v1.5.2PL0 Copyright (c) Steve Scherf et al.
# Submitted via: dBpowerAMP V12.0
#
DISCID=c20d7b0f
DTITLE=梅艷芳 - 梅艷芳_Faithfully_ Disc 3
DYEAR=2008
DGENRE=Pop
TTITLE0=緣份
TTITLE1=魔術師
TTITLE2=邁向新一天
TTITLE3=痴痴愛一次
TTITLE4=無人願愛我
TTITLE5=心肝寶貝
TTITLE6=玫瑰、玫瑰、我愛你
TTITLE7=夜香港
TTITLE8=似是故人來
TTITLE9=秋天復秋天
TTITLE10=路...始終告一段
TTITLE11=何日
TTITLE12=是這樣的
TTITLE13=莫問一生
TTITLE14=女人心
EXTD=
EXTT0=
EXTT1=
EXTT2=
EXTT3=
EXTT4=
EXTT5=
EXTT6=
EXTT7=
EXTT8=
EXTT9=
EXTT10=
EXTT11=
EXTT12=
EXTT13=
EXTT14=
PLAYORDER=
